<?xml version="1.0" encoding="utf-8"?>
<!-- Generator: Adobe Illustrator 18.1.0, SVG Export Plug-In . SVG Version: 6.00 Build 0)  -->
<!DOCTYPE svg PUBLIC "-//W3C//DTD SVG 1.1//EN" "http://www.w3.org/Graphics/SVG/1.1/DTD/svg11.dtd">
<svg version="1.1" id="Layer_1" xmlns="http://www.w3.org/2000/svg" xmlns:xlink="http://www.w3.org/1999/xlink" x="0px" y="0px"
	 viewBox="0 0 936 792" enable-background="new 0 0 936 792" xml:space="preserve">
<path fill="#FFFFFF" d="M452.3,300.3c7.2,9.9,11,22,11,36.3s-3.8,25.8-11,34.7c-3.8,5-9.9,9.3-18.2,13.2
	c12.1,4.4,20.9,11.5,27.5,20.9c6,9.3,9.3,20.9,9.3,34.6s-3.3,26.4-10.4,37.4c-4.4,7.2-9.9,13.8-16.5,18.7c-7.7,6-16.5,9.9-26.4,12.1
	c-10.5,2.2-21.5,3.3-33.6,3.3H276.9V275h113.9C419.9,275.5,440.2,283.8,452.3,300.3z M324.2,316.2v52.2h57.2c10.5,0,18.7-2.2,24.8-6
	c6.6-3.8,9.4-11,9.4-20.9c0-11-4.4-18.1-12.6-22c-7.1-2.2-16.5-3.9-28-3.9h-50.6V316.2z M324.2,407v62.7h57.2
	c10.5,0,18.1-1.7,23.6-4.4c10.5-5,15.4-14.8,15.4-29.7c0-12.1-5-20.9-14.9-25.3c-5.5-2.8-13.8-3.8-23.6-3.8h-57.7V407z M613.5,339.9
	c12.1,5.5,22,14.3,30.2,25.9c7.2,10.5,12.1,22.5,13.8,36.3c1.1,8.2,1.7,19.8,1.7,34.7H532.1c0.5,17.6,6.6,29.7,18.2,36.8
	c7.2,4.4,15.4,6.6,25.3,6.6c10.5,0,18.7-2.8,25.3-8.2c3.8-2.8,6.6-7.1,9.3-12.1h46.8c-1.1,10.5-7.2,20.9-17,31.3
	c-15.4,17-37.4,25.3-65.5,25.3c-23.1,0-44-7.1-61.6-21.4c-17.6-14.3-26.4-37.4-26.4-69.9c0-30.2,8.2-53.3,24.2-69.8
	c16-16,36.8-24.2,62.7-24.2C587.6,331.6,601.4,334.4,613.5,339.9z M545.3,379.5c-6.6,6.6-10.5,15.4-12.1,27h78.6
	c-1.1-12.1-5-21.5-12.1-27.5c-7.2-6-16.5-9.3-27-9.3C560.7,369.6,551.3,372.9,545.3,379.5z M622.3,286H521.1v29.1h101.2V286z"/>
</svg>
