<?xml version="1.0" encoding="utf-8"?>
<!-- Generator: Adobe Illustrator 18.1.0, SVG Export Plug-In . SVG Version: 6.00 Build 0)  -->
<!DOCTYPE svg PUBLIC "-//W3C//DTD SVG 1.1//EN" "http://www.w3.org/Graphics/SVG/1.1/DTD/svg11.dtd">
<svg version="1.1" id="Layer_1" xmlns="http://www.w3.org/2000/svg" xmlns:xlink="http://www.w3.org/1999/xlink" x="0px" y="0px"
	 viewBox="0 0 936 792" enable-background="new 0 0 936 792" xml:space="preserve">
<path fill="#FFFFFF" d="M362.1,553.8h-73.7V318.5h73.7V553.8z M323.6,288.8L323.6,288.8c-27,0-44.5-18.1-44.5-40.7
	c0-23.1,17.6-40.7,45.1-40.7c27,0,44,17.6,44.6,40.7C368.7,270.6,351.1,288.8,323.6,288.8z M656.9,553.8h-83.6V432.3
	c0-31.9-13.2-53.9-41.8-53.9c-22,0-34.1,14.9-40.2,29.2c-2.2,5-1.7,12.1-1.7,19.2v127.6h-82.5c0,0,1.1-216.1,0-236h83.1v36.8
	c5-16,31.3-39,73.7-39c52.2,0,93.5,34.1,93.5,106.7v130.9H656.9z"/>
</svg>
