<?xml version="1.0" encoding="utf-8"?>
<!-- Generator: Adobe Illustrator 18.1.0, SVG Export Plug-In . SVG Version: 6.00 Build 0)  -->
<!DOCTYPE svg PUBLIC "-//W3C//DTD SVG 1.1//EN" "http://www.w3.org/Graphics/SVG/1.1/DTD/svg11.dtd">
<svg version="1.1" id="Layer_1" xmlns="http://www.w3.org/2000/svg" xmlns:xlink="http://www.w3.org/1999/xlink" x="0px" y="0px"
	 viewBox="0 0 936 792" enable-background="new 0 0 936 792" xml:space="preserve">
<path fill="#FFFFFF" d="M659.7,295.9c-14.3,6-29.2,10.5-45.1,12.1c16-9.9,28.6-25.3,34.7-43.5c-15.4,8.8-31.9,15.4-50,19.2
	C584.9,268.4,564.5,259,542,259c-43.5,0-78.7,35.2-78.7,78.6c0,6,0.5,12.1,2.2,18.1c-65.5-3.8-123.2-34.6-161.7-82.5
	c-6.6,11.5-10.5,25.3-10.5,39.6c0,27,13.8,51.2,35.2,65.5c-12.6-0.5-24.8-3.8-35.8-9.9v1.1c0,38,27,69.8,63.2,77
	c-6.6,1.7-13.8,2.8-20.9,2.8c-5,0-9.9-0.5-14.9-1.7c9.9,31.4,39,53.9,73.1,54.5c-27,20.9-60.5,33.5-97.4,33.5
	c-6.6,0-12.6-0.5-18.7-1.1c34.6,22,75.9,35.2,120.5,35.2c144.6,0,223.3-119.4,223.3-223.3c0-3.3,0-6.6,0-9.9
	C636,325.6,649.2,311.9,659.7,295.9"/>
</svg>
